# xmcd
#
# Track frame offsets: 
#        150
#        14971
#        28406
#        40320
#        54054
#        70782
#        86607
#        102655
#        116486
#        129353
#        147088
#        160529
#        174006
#        191879
#        209577
#        222383
#        237280
#        251623
#        266221
#        281279
#        293625
#
# Disc length: 4147 seconds
#
# Revision: 0
# Processed by: cddbd v1.5.2PL0 Copyright (c) Steve Scherf et al.
# Submitted via: ExactAudioCopyFreeDBPlugin 1.0
#
DISCID=3a103115
DTITLE=Various Artist - Clubfete 2019
DYEAR=2019
DGENRE=No, thanks.
TTITLE0=El Profesor feat. Laura White - Ce soir? (HUGEL Remix)
TTITLE1=Dynoro and Gigi D'Agostino - In My Mind
TTITLE2=HUGEL feat. Amber van Day - WTF
TTITLE3=David Guetta feat. Anne-Marie - Don't Leave Me Alone
TTITLE4=Clean Bandit feat. Demi Lovato - Solo
TTITLE5=Robin Schulz feat. Erika Sirola - Speechless
TTITLE6=Calvin Harris and Dua Lipa - One Kiss
TTITLE7=Armin van Buuren - Blah Blah Blah
TTITLE8=Mike Candys and Jack Holiday - The Riddle Anthem Rework
TTITLE9=Ron Carroll - Lucky Star (Martijn Ten Velden Remix)
TTITLE10=Stefanie Heinzmann feat. Alle Farben - Build A House
TTITLE11=Dennis Lloyd - Nevermind (Wankelmut Remix)
TTITLE12=Silk City and Dua Lipa feat. Diplo and Mark Ronson - Electricity
TTITLE13=Oliver Heldens and Sidney Sampson - Riverside 2099
TTITLE14=Klaas - Ok Without You
TTITLE15=Martin Garrix feat. Dewain Whitmore and Justin Mylo - Burn Out
TTITLE16=Lost Frequencies feat. NGHBRS - Like I Love You
TTITLE17=Hanne Mjøen - Sounds Good To Me
TTITLE18=Alex Christensen and Berlin Orchestra feat. Anastacia - Another
TTITLE18=Night
TTITLE19=Little Big - Skibidi
TTITLE20=Scooter - One (Always Hardcore)
EXTD=
EXTT0=
EXTT1=
EXTT2=
EXTT3=
EXTT4=
EXTT5=
EXTT6=
EXTT7=
EXTT8=
EXTT9=
EXTT10=
EXTT11=
EXTT12=
EXTT13=
EXTT14=
EXTT15=
EXTT16=
EXTT17=
EXTT18=
EXTT19=
EXTT20=
PLAYORDER=
